<svg width="200" height="200" viewBox="0 0 200 200" xmlns="http://www.w3.org/2000/svg">
  <defs>
    <radialGradient id="treeGradient" cx="50%" cy="30%" r="70%">
      <stop offset="0%" style="stop-color:#00ff88;stop-opacity:1" />
      <stop offset="50%" style="stop-color:#00cc66;stop-opacity:1" />
      <stop offset="100%" style="stop-color:#009944;stop-opacity:1" />
    </radialGradient>
    <linearGradient id="trunkGradient" x1="0%" y1="0%" x2="0%" y2="100%">
      <stop offset="0%" style="stop-color:#8B4513;stop-opacity:1" />
      <stop offset="100%" style="stop-color:#654321;stop-opacity:1" />
    </linearGradient>
    <radialGradient id="circuitGradient" cx="50%" cy="50%" r="50%">
      <stop offset="0%" style="stop-color:#00ffff;stop-opacity:1" />
      <stop offset="100%" style="stop-color:#0088ff;stop-opacity:1" />
    </radialGradient>
  </defs>
  
  <!-- Tree Crown -->
  <circle cx="100" cy="80" r="65" fill="url(#treeGradient)" opacity="0.9"/>
  
  <!-- Tree Trunk -->
  <rect x="90" y="130" width="20" height="50" fill="url(#trunkGradient)" rx="10"/>
  
  <!-- Circuit Patterns in Tree -->
  <g stroke="url(#circuitGradient)" stroke-width="2" fill="none" opacity="0.8">
    <!-- Central Circuit -->
    <path d="M100 50 L100 80 M85 65 L115 65"/>
    <circle cx="100" cy="50" r="3" fill="url(#circuitGradient)"/>
    <circle cx="85" cy="65" r="2" fill="url(#circuitGradient)"/>
    <circle cx="115" cy="65" r="2" fill="url(#circuitGradient)"/>
    
    <!-- Branch Circuits -->
    <path d="M70 70 L85 70 L85 85"/>
    <path d="M130 70 L115 70 L115 85"/>
    <path d="M100 95 L100 110"/>
    
    <!-- Circuit Nodes -->
    <circle cx="70" cy="70" r="2" fill="url(#circuitGradient)"/>
    <circle cx="130" cy="70" r="2" fill="url(#circuitGradient)"/>
    <circle cx="85" cy="85" r="2" fill="url(#circuitGradient)"/>
    <circle cx="115" cy="85" r="2" fill="url(#circuitGradient)"/>
    <circle cx="100" cy="110" r="2" fill="url(#circuitGradient)"/>
    
    <!-- Additional Circuit Lines -->
    <path d="M60 90 L75 90"/>
    <path d="M125 90 L140 90"/>
    <path d="M80 100 L120 100"/>
    
    <!-- More Circuit Nodes -->
    <circle cx="60" cy="90" r="1.5" fill="url(#circuitGradient)"/>
    <circle cx="140" cy="90" r="1.5" fill="url(#circuitGradient)"/>
    <circle cx="80" cy="100" r="1.5" fill="url(#circuitGradient)"/>
    <circle cx="120" cy="100" r="1.5" fill="url(#circuitGradient)"/>
  </g>
  
  <!-- Digital Leaves -->
  <g fill="url(#circuitGradient)" opacity="0.6">
    <polygon points="75,45 80,40 85,45 80,50" />
    <polygon points="115,45 120,40 125,45 120,50" />
    <polygon points="55,75 60,70 65,75 60,80" />
    <polygon points="135,75 140,70 145,75 140,80" />
    <polygon points="90,35 95,30 100,35 95,40" />
    <polygon points="105,35 110,30 115,35 110,40" />
  </g>
  
  <!-- Glow Effect -->
  <circle cx="100" cy="80" r="65" fill="none" stroke="url(#circuitGradient)" stroke-width="1" opacity="0.3"/>
</svg>
