<svg width="64" height="64" viewBox="0 0 64 64" xmlns="http://www.w3.org/2000/svg">
  <defs>
    <radialGradient id="treeGradientSmall" cx="50%" cy="30%" r="70%">
      <stop offset="0%" style="stop-color:#00ff88;stop-opacity:1" />
      <stop offset="50%" style="stop-color:#00cc66;stop-opacity:1" />
      <stop offset="100%" style="stop-color:#009944;stop-opacity:1" />
    </radialGradient>
    <linearGradient id="trunkGradientSmall" x1="0%" y1="0%" x2="0%" y2="100%">
      <stop offset="0%" style="stop-color:#8B4513;stop-opacity:1" />
      <stop offset="100%" style="stop-color:#654321;stop-opacity:1" />
    </linearGradient>
    <radialGradient id="circuitGradientSmall" cx="50%" cy="50%" r="50%">
      <stop offset="0%" style="stop-color:#00ffff;stop-opacity:1" />
      <stop offset="100%" style="stop-color:#0088ff;stop-opacity:1" />
    </radialGradient>
  </defs>
  
  <!-- Tree Crown -->
  <circle cx="32" cy="26" r="20" fill="url(#treeGradientSmall)" opacity="0.9"/>
  
  <!-- Tree Trunk -->
  <rect x="28" y="42" width="8" height="16" fill="url(#trunkGradientSmall)" rx="4"/>
  
  <!-- Circuit Patterns -->
  <g stroke="url(#circuitGradientSmall)" stroke-width="1" fill="none" opacity="0.8">
    <path d="M32 16 L32 26 M26 21 L38 21"/>
    <circle cx="32" cy="16" r="1.5" fill="url(#circuitGradientSmall)"/>
    <circle cx="26" cy="21" r="1" fill="url(#circuitGradientSmall)"/>
    <circle cx="38" cy="21" r="1" fill="url(#circuitGradientSmall)"/>
    
    <path d="M22 22 L26 22 L26 28"/>
    <path d="M42 22 L38 22 L38 28"/>
    <circle cx="22" cy="22" r="1" fill="url(#circuitGradientSmall)"/>
    <circle cx="42" cy="22" r="1" fill="url(#circuitGradientSmall)"/>
  </g>
  
  <!-- Digital Leaves -->
  <g fill="url(#circuitGradientSmall)" opacity="0.6">
    <polygon points="24,14 26,12 28,14 26,16" />
    <polygon points="36,14 38,12 40,14 38,16" />
    <polygon points="18,24 20,22 22,24 20,26" />
    <polygon points="42,24 44,22 46,24 44,26" />
  </g>
</svg>
